<?xml version="1.0" encoding="utf-8"?>
<!-- Designed by Vexels.com - 2019 All Rights Reserved - https://vexels.com/terms-and-conditions/  -->
<svg version="1.1" id="Layer_1" xmlns="http://www.w3.org/2000/svg" xmlns:xlink="http://www.w3.org/1999/xlink" x="0px" y="0px"
	 viewBox="0 0 1200 1200" enable-background="new 0 0 1200 1200" xml:space="preserve">
<g>
	<polygon fill="#2CB678" points="545.279,1093.364 545.558,1108.81 545.628,1114.052 545.698,1117.756 545.803,1122.998 
		545.943,1130.896 567.364,1130.896 567.119,1122.998 566.98,1117.756 566.875,1114.052 566.7,1108.81 566.35,1096.509 	"/>
	<polygon fill="#2CB678" points="715.44,1093.364 715.719,1108.81 715.789,1114.052 715.859,1117.756 715.964,1122.998 
		716.104,1130.896 737.524,1130.896 737.28,1122.998 737.14,1117.756 737.035,1114.052 736.86,1108.81 736.511,1096.509 	"/>
	<path fill="#010101" d="M545.948,1130.883l1.478,13.668c0,0,1.385,4.848,8.865,5.264c5.364,0.298,18.564,0.168,25.604,0.071
		c4.463-0.061,5.249-6.625,0.876-7.521l-0.16-0.031c-5.403-0.969-14.407-4.479-15.238-11.451H545.948z"/>
	<path fill="#010101" d="M716.757,1130.883l1.478,13.668c0,0,1.385,4.848,8.865,5.264c5.364,0.298,18.564,0.168,25.604,0.071
		c4.463-0.061,5.249-6.625,0.876-7.521l-0.16-0.031c-5.403-0.969-14.407-4.479-15.238-11.451H716.757z"/>
	<path fill="#F8D2AF" d="M504.074,199.757l53.082,4.565c-6.072-5.046-9.111-28.132-10.064-36.922
		c10.474-11.97,6.245-35.34-10.24-53.779c-17.341-19.396-41.641-25.963-54.277-14.667c-12.635,11.297-8.82,36.178,8.521,55.574
		c7.483,8.37,16.262,14.336,24.84,17.524C515.588,183.751,504.354,199.663,504.074,199.757z"/>
	<path fill="#FBB155" d="M513.613,56.502c-7.049-7.195-12.927-7.066-16.402-5.906c-1.835,0.612-2.856,2.59-2.291,4.44
		c2.076,6.794,0.898,18.847-2.854,28.249c-4.294,10.762-13.992,0.399-26.349,27.398s32.149,50.598,32.149,50.598
		s2.813-3.251,5.232-8.272c2.418-5.021-3.999-12.781-2.863-25.485c1.136-12.705,19.986-26.359,25.277-35.052
		C530.804,83.779,525.056,68.181,513.613,56.502z"/>
	<path fill="#11192B" d="M566.74,217.958l-12.026-15.335l-49.366-5.414c0,0-71.023,48.092-60.831,237.274
		c0,0,1.274,86.629,16.561,133.766l220.395-10.829c0,0-17.162-99.478-43.18-188.43c-12.881-44.039-31.215-86.269-54.35-125.852
		C578.807,234.353,573.02,225.965,566.74,217.958z"/>
	<path fill="#1B2A56" d="M477.958,406.775c0,0-43.951-148.098,2.548-168.481c46.499-20.383,98.413,92.362,103.191,97.776
		L477.958,406.775z"/>
	<path fill="#F99E37" d="M629.976,849.397l-2.607,26.649l-58.678,222.005c-0.549,2.004-2.36,3.403-4.419,3.403l-16.549,0.055
		c-2.553,0.027-4.611-2.058-4.611-4.583l0.741-223.377l-66.445-246.431c6.669,17.647,15.507,36.09,26.979,51.323
		c26.842,35.624,45.861,49.484,45.861,49.484L629.976,849.397z"/>
	<path fill="#FBB155" d="M460.055,563.617c0,0,11.214,70.878,44.337,114.83c26.838,35.612,45.863,49.472,45.863,49.472
		l109.56,166.888l52.808,200.637c0.787,2.99,3.49,5.073,6.581,5.073h13.486c3.736,0,6.773-3.011,6.805-6.747l1.853-217.223
		l-58.602-321.038l-20.297,0.739L460.055,563.617z"/>
	<path fill="#F8D2AF" d="M583.696,336.07c0,0,60.832,232.816,80.578,240.46l1.911,26.116c0,0-169.436-110.197-188.227-195.871
		L583.696,336.07z"/>
	<path fill="#F99E37" d="M703.682,670.214c-17.096-4.854-39.142-15.181-51.21-36.976c-0.658-1.199,21.234-41.482,9.979-76.989
		l20.287-0.735L703.682,670.214z"/>
</g>
</svg>
